<svg width="904" height="40" viewBox="0 0 904 40" fill="none" xmlns="http://www.w3.org/2000/svg">
<path d="M31.2157 16.1645C30.9473 15.5071 30.4493 14.9851 29.8375 14.5264C29.2176 14.128 28.536 14.0663 27.9883 14.0948C27.4297 14.1297 27.0682 14.213 26.4627 14.0747C24.6743 13.8786 23.3001 13.0971 20.8934 15.3766C18.4338 17.6704 17.0795 20.8839 18.016 21.5448C18.7095 22.08 18.01 23.1541 20.1782 23.7767C20.9929 23.9591 21.7237 24.0671 22.475 24.1741C23.3913 24.3072 24.3256 24.2712 25.4701 23.8626C26.351 23.569 28.307 22.2942 28.7802 20.2587C29.027 19.2627 28.5302 18.2741 27.6848 17.8687C26.8471 17.4336 25.9755 17.3767 25.3553 17.3654C25.328 17.3653 25.3014 17.3656 25.2755 17.3663C24.173 17.3744 22.9964 18.0542 22.4202 19.0702C22.1322 19.5698 22.001 20.1531 22.1356 20.6536C22.2635 21.1598 22.6625 21.5054 23.0374 21.6766C23.5158 21.8959 23.9358 21.9337 24.2468 21.9545C24.3809 21.9616 24.4475 21.9609 24.4472 21.9612C24.4472 21.9612 24.4472 21.9612 24.4472 21.9612C24.4472 21.9612 24.4472 21.9612 24.4472 21.9612C24.4472 21.9612 24.4472 21.9612 24.4472 21.9612C24.4476 21.9607 24.3446 21.9625 24.175 21.9544C23.7593 21.928 23.2251 21.8729 22.6976 21.5483C22.165 21.2418 21.7963 20.509 21.9049 19.7333C22.0676 18.6288 22.6064 18.0172 23.135 17.5619C23.687 17.1252 24.3435 16.779 25.3746 16.7668C25.9803 16.7776 26.6845 16.7862 27.6033 17.0638C28.5628 17.3411 29.4739 18.0975 29.7538 19.0919C30.0471 20.0714 29.8828 21.0303 29.5703 21.8867C28.907 23.5629 27.6516 25.1945 25.2371 26.102C24.1559 26.4758 23.1824 26.6186 22.2702 26.628C20.8378 26.633 19.6829 26.7485 18.0434 26.276C16.5992 25.9255 13.7074 24.0491 13.9903 20.4808C14.6577 16.4064 15.9525 15.0778 16.7792 13.1808C17.7786 11.4467 18.6882 9.32925 22.4436 7.51939C25.7466 5.6479 32.2253 6.9318 34.5104 10.6142C36.8598 13.7157 38.3725 17.3392 38.8037 20.0356C38.9168 20.6592 38.9841 21.3071 38.9879 21.9709C39.347 27.64 33.1498 32.2363 28.1387 32.8055C22.3067 33.8313 14.8926 33.8777 9.18994 30.2401C6.80238 28.7194 4.08623 26.173 3.12176 22.8809C2.11335 19.5631 3.06906 16.518 4.00962 14.53C4.33585 13.8284 4.77926 13.3431 5.18007 12.9694C8.4147 10.5274 9.39779 10.5501 12.7328 9.0254C13.6997 8.61198 14.8618 8.1753 16.0133 7.60631C16.5841 7.31727 17.1601 6.99775 17.6183 6.55767C18.0878 6.14868 18.3192 5.4248 17.9932 4.88834C17.6882 4.35549 17.4565 4.22327 17.5196 4.26558C17.5656 4.33169 17.8992 4.55692 18.1331 5.14144C18.4563 6.08647 17.5993 6.80118 17.0778 7.20932C16.4991 7.64541 15.9653 7.94336 15.5742 8.2086C13.9909 9.25148 13.3166 9.73766 11.1667 10.6423C9.00136 11.5219 8.32823 12.5589 7.36806 13.3117C6.81744 13.8026 6.25437 13.8462 5.67064 15.1541C5.34871 16.155 4.89939 17.6252 5.29886 19.7257C5.9483 22.6302 7.86297 24.0158 9.39657 24.9213C10.9767 25.8065 12.3547 26.2145 13.4747 26.4923C15.6486 27.0903 20.6652 28.3799 24.4747 27.4847C26.1104 27.1323 28.5427 26.5133 30.29 25.3778C32.0996 24.2262 32.6228 22.9041 32.4907 21.8413C32.4625 21.5763 32.3998 21.3126 32.3136 21.0738C31.3818 19.0321 32.1288 18.6086 31.2157 16.1645Z" fill="#EB292B"/>
<path d="M441.216 16.1645C440.947 15.5071 440.449 14.9851 439.838 14.5264C439.218 14.128 438.536 14.0663 437.988 14.0948C437.43 14.1297 437.068 14.213 436.463 14.0747C434.674 13.8786 433.3 13.0971 430.893 15.3766C428.434 17.6704 427.08 20.8839 428.016 21.5448C428.71 22.08 428.01 23.1541 430.178 23.7767C430.993 23.9591 431.724 24.0671 432.475 24.1741C433.391 24.3072 434.326 24.2712 435.47 23.8626C436.351 23.569 438.307 22.2942 438.78 20.2587C439.027 19.2627 438.53 18.2741 437.685 17.8687C436.847 17.4336 435.976 17.3767 435.355 17.3654C435.328 17.3653 435.301 17.3656 435.275 17.3663C434.173 17.3744 432.996 18.0542 432.42 19.0702C432.132 19.5698 432.001 20.1531 432.136 20.6536C432.263 21.1598 432.663 21.5054 433.037 21.6766C433.516 21.8959 433.936 21.9337 434.247 21.9545C434.381 21.9616 434.448 21.9609 434.447 21.9612C434.447 21.9612 434.447 21.9612 434.447 21.9612C434.447 21.9612 434.447 21.9612 434.447 21.9612C434.447 21.9612 434.447 21.9612 434.447 21.9612C434.448 21.9607 434.345 21.9625 434.175 21.9544C433.759 21.928 433.225 21.8729 432.698 21.5483C432.165 21.2418 431.796 20.509 431.905 19.7333C432.068 18.6288 432.606 18.0172 433.135 17.5619C433.687 17.1252 434.343 16.779 435.375 16.7668C435.98 16.7776 436.684 16.7862 437.603 17.0638C438.563 17.3411 439.474 18.0975 439.754 19.0919C440.047 20.0714 439.883 21.0303 439.57 21.8867C438.907 23.5629 437.652 25.1945 435.237 26.102C434.156 26.4758 433.182 26.6186 432.27 26.628C430.838 26.633 429.683 26.7485 428.043 26.276C426.599 25.9255 423.707 24.0491 423.99 20.4808C424.658 16.4064 425.953 15.0778 426.779 13.1808C427.779 11.4467 428.688 9.32925 432.444 7.51939C435.747 5.6479 442.225 6.9318 444.51 10.6142C446.86 13.7157 448.372 17.3392 448.804 20.0356C448.917 20.6592 448.984 21.3071 448.988 21.9709C449.347 27.64 443.15 32.2363 438.139 32.8055C432.307 33.8313 424.893 33.8777 419.19 30.2401C416.802 28.7194 414.086 26.173 413.122 22.8809C412.113 19.5631 413.069 16.518 414.01 14.53C414.336 13.8284 414.779 13.3431 415.18 12.9694C418.415 10.5274 419.398 10.5501 422.733 9.0254C423.7 8.61198 424.862 8.1753 426.013 7.60631C426.584 7.31727 427.16 6.99775 427.618 6.55767C428.088 6.14868 428.319 5.4248 427.993 4.88834C427.688 4.35549 427.456 4.22327 427.52 4.26558C427.566 4.33169 427.899 4.55692 428.133 5.14144C428.456 6.08647 427.599 6.80118 427.078 7.20932C426.499 7.64541 425.965 7.94336 425.574 8.2086C423.991 9.25148 423.317 9.73766 421.167 10.6423C419.001 11.5219 418.328 12.5589 417.368 13.3117C416.817 13.8026 416.254 13.8462 415.671 15.1541C415.349 16.155 414.899 17.6252 415.299 19.7257C415.948 22.6302 417.863 24.0158 419.397 24.9213C420.977 25.8065 422.355 26.2145 423.475 26.4923C425.649 27.0903 430.665 28.3799 434.475 27.4847C436.11 27.1323 438.543 26.5133 440.29 25.3778C442.1 24.2262 442.623 22.9041 442.491 21.8413C442.463 21.5763 442.4 21.3126 442.314 21.0738C441.382 19.0321 442.129 18.6086 441.216 16.1645Z" fill="#EB292B"/>
<path d="M130.181 16.1645C129.912 15.5071 129.414 14.9851 128.803 14.5264C128.183 14.128 127.501 14.0663 126.953 14.0948C126.395 14.1297 126.033 14.213 125.428 14.0747C123.639 13.8786 122.265 13.0971 119.858 15.3766C117.399 17.6704 116.045 20.8839 116.981 21.5448C117.675 22.08 116.975 23.1541 119.143 23.7767C119.958 23.9591 120.689 24.0671 121.44 24.1741C122.356 24.3072 123.291 24.2712 124.435 23.8626C125.316 23.569 127.272 22.2942 127.745 20.2587C127.992 19.2627 127.495 18.2741 126.65 17.8687C125.812 17.4336 124.941 17.3767 124.32 17.3654C124.293 17.3653 124.267 17.3656 124.241 17.3663C123.138 17.3744 121.962 18.0542 121.385 19.0702C121.097 19.5698 120.966 20.1531 121.101 20.6536C121.229 21.1598 121.628 21.5054 122.002 21.6766C122.481 21.8959 122.901 21.9337 123.212 21.9545C123.346 21.9616 123.413 21.9609 123.412 21.9612C123.412 21.9612 123.412 21.9612 123.412 21.9612C123.412 21.9612 123.412 21.9612 123.412 21.9612C123.412 21.9612 123.412 21.9612 123.412 21.9612C123.413 21.9607 123.31 21.9625 123.14 21.9544C122.724 21.928 122.19 21.8729 121.663 21.5483C121.13 21.2418 120.761 20.509 120.87 19.7333C121.033 18.6288 121.571 18.0172 122.1 17.5619C122.652 17.1252 123.309 16.779 124.34 16.7668C124.945 16.7776 125.65 16.7862 126.568 17.0638C127.528 17.3411 128.439 18.0975 128.719 19.0919C129.012 20.0714 128.848 21.0303 128.535 21.8867C127.872 23.5629 126.617 25.1945 124.202 26.102C123.121 26.4758 122.147 26.6186 121.235 26.628C119.803 26.633 118.648 26.7485 117.009 26.276C115.564 25.9255 112.673 24.0491 112.955 20.4808C113.623 16.4064 114.918 15.0778 115.744 13.1808C116.744 11.4467 117.653 9.32925 121.409 7.51939C124.712 5.6479 131.19 6.9318 133.476 10.6142C135.825 13.7157 137.338 17.3392 137.769 20.0356C137.882 20.6592 137.949 21.3071 137.953 21.9709C138.312 27.64 132.115 32.2363 127.104 32.8055C121.272 33.8313 113.858 33.8777 108.155 30.2401C105.767 28.7194 103.051 26.173 102.087 22.8809C101.078 19.5631 102.034 16.518 102.975 14.53C103.301 13.8284 103.744 13.3431 104.145 12.9694C107.38 10.5274 108.363 10.5501 111.698 9.0254C112.665 8.61198 113.827 8.1753 114.978 7.60631C115.549 7.31727 116.125 6.99775 116.583 6.55767C117.053 6.14868 117.284 5.4248 116.958 4.88834C116.653 4.35549 116.422 4.22327 116.485 4.26558C116.531 4.33169 116.864 4.55692 117.098 5.14144C117.421 6.08647 116.564 6.80118 116.043 7.20932C115.464 7.64541 114.93 7.94336 114.539 8.2086C112.956 9.25148 112.282 9.73766 110.132 10.6423C107.966 11.5219 107.293 12.5589 106.333 13.3117C105.783 13.8026 105.219 13.8462 104.636 15.1541C104.314 16.155 103.864 17.6252 104.264 19.7257C104.913 22.6302 106.828 24.0158 108.362 24.9213C109.942 25.8065 111.32 26.2145 112.44 26.4923C114.614 27.0903 119.63 28.3799 123.44 27.4847C125.075 27.1323 127.508 26.5133 129.255 25.3778C131.065 24.2262 131.588 22.9041 131.456 21.8413C131.428 21.5763 131.365 21.3126 131.279 21.0738C130.347 19.0321 131.094 18.6086 130.181 16.1645Z" fill="#EB292B"/>
<path d="M540.181 16.1645C539.912 15.5071 539.414 14.9851 538.803 14.5264C538.183 14.128 537.501 14.0663 536.953 14.0948C536.395 14.1297 536.033 14.213 535.428 14.0747C533.639 13.8786 532.265 13.0971 529.858 15.3766C527.399 17.6704 526.045 20.8839 526.981 21.5448C527.675 22.08 526.975 23.1541 529.143 23.7767C529.958 23.9591 530.689 24.0671 531.44 24.1741C532.356 24.3072 533.291 24.2712 534.435 23.8626C535.316 23.569 537.272 22.2942 537.745 20.2587C537.992 19.2627 537.495 18.2741 536.65 17.8687C535.812 17.4336 534.941 17.3767 534.32 17.3654C534.293 17.3653 534.267 17.3656 534.241 17.3663C533.138 17.3744 531.962 18.0542 531.385 19.0702C531.097 19.5698 530.966 20.1531 531.101 20.6536C531.229 21.1598 531.628 21.5054 532.002 21.6766C532.481 21.8959 532.901 21.9337 533.212 21.9545C533.346 21.9616 533.413 21.9609 533.412 21.9612C533.412 21.9612 533.412 21.9612 533.412 21.9612C533.412 21.9612 533.412 21.9612 533.412 21.9612C533.412 21.9612 533.412 21.9612 533.412 21.9612C533.413 21.9607 533.31 21.9625 533.14 21.9544C532.724 21.928 532.19 21.8729 531.663 21.5483C531.13 21.2418 530.761 20.509 530.87 19.7333C531.033 18.6288 531.571 18.0172 532.1 17.5619C532.652 17.1252 533.309 16.779 534.34 16.7668C534.945 16.7776 535.65 16.7862 536.568 17.0638C537.528 17.3411 538.439 18.0975 538.719 19.0919C539.012 20.0714 538.848 21.0303 538.535 21.8867C537.872 23.5629 536.617 25.1945 534.202 26.102C533.121 26.4758 532.147 26.6186 531.235 26.628C529.803 26.633 528.648 26.7485 527.009 26.276C525.564 25.9255 522.673 24.0491 522.955 20.4808C523.623 16.4064 524.918 15.0778 525.744 13.1808C526.744 11.4467 527.653 9.32925 531.409 7.51939C534.712 5.6479 541.19 6.9318 543.476 10.6142C545.825 13.7157 547.338 17.3392 547.769 20.0356C547.882 20.6592 547.949 21.3071 547.953 21.9709C548.312 27.64 542.115 32.2363 537.104 32.8055C531.272 33.8313 523.858 33.8777 518.155 30.2401C515.767 28.7194 513.051 26.173 512.087 22.8809C511.078 19.5631 512.034 16.518 512.975 14.53C513.301 13.8284 513.744 13.3431 514.145 12.9694C517.38 10.5274 518.363 10.5501 521.698 9.0254C522.665 8.61198 523.827 8.1753 524.978 7.60631C525.549 7.31727 526.125 6.99775 526.583 6.55767C527.053 6.14868 527.284 5.4248 526.958 4.88834C526.653 4.35549 526.422 4.22327 526.485 4.26558C526.531 4.33169 526.864 4.55692 527.098 5.14144C527.421 6.08647 526.564 6.80118 526.043 7.20932C525.464 7.64541 524.93 7.94336 524.539 8.2086C522.956 9.25148 522.282 9.73766 520.132 10.6423C517.966 11.5219 517.293 12.5589 516.333 13.3117C515.783 13.8026 515.219 13.8462 514.636 15.1541C514.314 16.155 513.864 17.6252 514.264 19.7257C514.913 22.6302 516.828 24.0158 518.362 24.9213C519.942 25.8065 521.32 26.2145 522.44 26.4923C524.614 27.0903 529.63 28.3799 533.44 27.4847C535.075 27.1323 537.508 26.5133 539.255 25.3778C541.065 24.2262 541.588 22.9041 541.456 21.8413C541.428 21.5763 541.365 21.3126 541.279 21.0738C540.347 19.0321 541.094 18.6086 540.181 16.1645Z" fill="#EB292B"/>
<path d="M236.036 16.1645C235.767 15.5071 235.269 14.9851 234.658 14.5264C234.038 14.128 233.356 14.0663 232.808 14.0948C232.25 14.1297 231.888 14.213 231.283 14.0747C229.494 13.8786 228.12 13.0971 225.713 15.3766C223.254 17.6704 221.9 20.8839 222.836 21.5448C223.53 22.08 222.83 23.1541 224.998 23.7767C225.813 23.9591 226.544 24.0671 227.295 24.1741C228.211 24.3072 229.146 24.2712 230.29 23.8626C231.171 23.569 233.127 22.2942 233.6 20.2587C233.847 19.2627 233.35 18.2741 232.505 17.8687C231.667 17.4336 230.796 17.3767 230.175 17.3654C230.148 17.3653 230.122 17.3656 230.096 17.3663C228.993 17.3744 227.816 18.0542 227.24 19.0702C226.952 19.5698 226.821 20.1531 226.956 20.6536C227.084 21.1598 227.483 21.5054 227.857 21.6766C228.336 21.8959 228.756 21.9337 229.067 21.9545C229.201 21.9616 229.268 21.9609 229.267 21.9612C229.267 21.9612 229.267 21.9612 229.267 21.9612C229.267 21.9612 229.267 21.9612 229.267 21.9612C229.267 21.9612 229.267 21.9612 229.267 21.9612C229.268 21.9607 229.165 21.9625 228.995 21.9544C228.579 21.928 228.045 21.8729 227.518 21.5483C226.985 21.2418 226.616 20.509 226.725 19.7333C226.888 18.6288 227.426 18.0172 227.955 17.5619C228.507 17.1252 229.164 16.779 230.195 16.7668C230.8 16.7776 231.505 16.7862 232.423 17.0638C233.383 17.3411 234.294 18.0975 234.574 19.0919C234.867 20.0714 234.703 21.0303 234.39 21.8867C233.727 23.5629 232.472 25.1945 230.057 26.102C228.976 26.4758 228.002 26.6186 227.09 26.628C225.658 26.633 224.503 26.7485 222.864 26.276C221.419 25.9255 218.528 24.0491 218.81 20.4808C219.478 16.4064 220.773 15.0778 221.599 13.1808C222.599 11.4467 223.508 9.32925 227.264 7.51939C230.567 5.6479 237.045 6.9318 239.331 10.6142C241.68 13.7157 243.193 17.3392 243.624 20.0356C243.737 20.6592 243.804 21.3071 243.808 21.9709C244.167 27.64 237.97 32.2363 232.959 32.8055C227.127 33.8313 219.713 33.8777 214.01 30.2401C211.622 28.7194 208.906 26.173 207.942 22.8809C206.933 19.5631 207.889 16.518 208.83 14.53C209.156 13.8284 209.599 13.3431 210 12.9694C213.235 10.5274 214.218 10.5501 217.553 9.0254C218.52 8.61198 219.682 8.1753 220.833 7.60631C221.404 7.31727 221.98 6.99775 222.438 6.55767C222.908 6.14868 223.139 5.4248 222.813 4.88834C222.508 4.35549 222.277 4.22327 222.34 4.26558C222.386 4.33169 222.719 4.55692 222.953 5.14144C223.276 6.08647 222.419 6.80118 221.898 7.20932C221.319 7.64541 220.785 7.94336 220.394 8.2086C218.811 9.25148 218.137 9.73766 215.987 10.6423C213.821 11.5219 213.148 12.5589 212.188 13.3117C211.638 13.8026 211.074 13.8462 210.491 15.1541C210.169 16.155 209.719 17.6252 210.119 19.7257C210.768 22.6302 212.683 24.0158 214.217 24.9213C215.797 25.8065 217.175 26.2145 218.295 26.4923C220.469 27.0903 225.485 28.3799 229.295 27.4847C230.93 27.1323 233.363 26.5133 235.11 25.3778C236.92 24.2262 237.443 22.9041 237.311 21.8413C237.283 21.5763 237.22 21.3126 237.134 21.0738C236.202 19.0321 236.949 18.6086 236.036 16.1645Z" fill="#EB292B"/>
<path d="M646.036 16.1645C645.767 15.5071 645.269 14.9851 644.658 14.5264C644.038 14.128 643.356 14.0663 642.808 14.0948C642.25 14.1297 641.888 14.213 641.283 14.0747C639.494 13.8786 638.12 13.0971 635.713 15.3766C633.254 17.6704 631.9 20.8839 632.836 21.5448C633.53 22.08 632.83 23.1541 634.998 23.7767C635.813 23.9591 636.544 24.0671 637.295 24.1741C638.211 24.3072 639.146 24.2712 640.29 23.8626C641.171 23.569 643.127 22.2942 643.6 20.2587C643.847 19.2627 643.35 18.2741 642.505 17.8687C641.667 17.4336 640.796 17.3767 640.175 17.3654C640.148 17.3653 640.122 17.3656 640.096 17.3663C638.993 17.3744 637.816 18.0542 637.24 19.0702C636.952 19.5698 636.821 20.1531 636.956 20.6536C637.084 21.1598 637.483 21.5054 637.857 21.6766C638.336 21.8959 638.756 21.9337 639.067 21.9545C639.201 21.9616 639.268 21.9609 639.267 21.9612C639.267 21.9612 639.267 21.9612 639.267 21.9612C639.267 21.9612 639.267 21.9612 639.267 21.9612C639.267 21.9612 639.267 21.9612 639.267 21.9612C639.268 21.9607 639.165 21.9625 638.995 21.9544C638.579 21.928 638.045 21.8729 637.518 21.5483C636.985 21.2418 636.616 20.509 636.725 19.7333C636.888 18.6288 637.426 18.0172 637.955 17.5619C638.507 17.1252 639.164 16.779 640.195 16.7668C640.8 16.7776 641.505 16.7862 642.423 17.0638C643.383 17.3411 644.294 18.0975 644.574 19.0919C644.867 20.0714 644.703 21.0303 644.39 21.8867C643.727 23.5629 642.472 25.1945 640.057 26.102C638.976 26.4758 638.002 26.6186 637.09 26.628C635.658 26.633 634.503 26.7485 632.864 26.276C631.419 25.9255 628.528 24.0491 628.81 20.4808C629.478 16.4064 630.773 15.0778 631.599 13.1808C632.599 11.4467 633.508 9.32925 637.264 7.51939C640.567 5.6479 647.045 6.9318 649.331 10.6142C651.68 13.7157 653.193 17.3392 653.624 20.0356C653.737 20.6592 653.804 21.3071 653.808 21.9709C654.167 27.64 647.97 32.2363 642.959 32.8055C637.127 33.8313 629.713 33.8777 624.01 30.2401C621.622 28.7194 618.906 26.173 617.942 22.8809C616.933 19.5631 617.889 16.518 618.83 14.53C619.156 13.8284 619.599 13.3431 620 12.9694C623.235 10.5274 624.218 10.5501 627.553 9.0254C628.52 8.61198 629.682 8.1753 630.833 7.60631C631.404 7.31727 631.98 6.99775 632.438 6.55767C632.908 6.14868 633.139 5.4248 632.813 4.88834C632.508 4.35549 632.277 4.22327 632.34 4.26558C632.386 4.33169 632.719 4.55692 632.953 5.14144C633.276 6.08647 632.419 6.80118 631.898 7.20932C631.319 7.64541 630.785 7.94336 630.394 8.2086C628.811 9.25148 628.137 9.73766 625.987 10.6423C623.821 11.5219 623.148 12.5589 622.188 13.3117C621.638 13.8026 621.074 13.8462 620.491 15.1541C620.169 16.155 619.719 17.6252 620.119 19.7257C620.768 22.6302 622.683 24.0158 624.217 24.9213C625.797 25.8065 627.175 26.2145 628.295 26.4923C630.469 27.0903 635.485 28.3799 639.295 27.4847C640.93 27.1323 643.363 26.5133 645.11 25.3778C646.92 24.2262 647.443 22.9041 647.311 21.8413C647.283 21.5763 647.22 21.3126 647.134 21.0738C646.202 19.0321 646.949 18.6086 646.036 16.1645Z" fill="#EB292B"/>
<path d="M342.056 16.1645C341.787 15.5071 341.289 14.9851 340.677 14.5264C340.057 14.128 339.376 14.0663 338.828 14.0948C338.27 14.1297 337.908 14.213 337.303 14.0747C335.514 13.8786 334.14 13.0971 331.733 15.3766C329.274 17.6704 327.919 20.8839 328.856 21.5448C329.549 22.08 328.85 23.1541 331.018 23.7767C331.833 23.9591 332.564 24.0671 333.315 24.1741C334.231 24.3072 335.165 24.2712 336.31 23.8626C337.191 23.569 339.147 22.2942 339.62 20.2587C339.867 19.2627 339.37 18.2741 338.525 17.8687C337.687 17.4336 336.815 17.3767 336.195 17.3654C336.168 17.3653 336.141 17.3656 336.115 17.3663C335.013 17.3744 333.836 18.0542 333.26 19.0702C332.972 19.5698 332.841 20.1531 332.975 20.6536C333.103 21.1598 333.502 21.5054 333.877 21.6766C334.356 21.8959 334.776 21.9337 335.087 21.9545C335.221 21.9616 335.287 21.9609 335.287 21.9612C335.287 21.9612 335.287 21.9612 335.287 21.9612C335.287 21.9612 335.287 21.9612 335.287 21.9612C335.287 21.9612 335.287 21.9612 335.287 21.9612C335.287 21.9607 335.184 21.9625 335.015 21.9544C334.599 21.928 334.065 21.8729 333.537 21.5483C333.005 21.2418 332.636 20.509 332.745 19.7333C332.907 18.6288 333.446 18.0172 333.975 17.5619C334.527 17.1252 335.183 16.779 336.214 16.7668C336.82 16.7776 337.524 16.7862 338.443 17.0638C339.403 17.3411 340.314 18.0975 340.594 19.0919C340.887 20.0714 340.723 21.0303 340.41 21.8867C339.747 23.5629 338.491 25.1945 336.077 26.102C334.996 26.4758 334.022 26.6186 333.11 26.628C331.678 26.633 330.523 26.7485 328.883 26.276C327.439 25.9255 324.547 24.0491 324.83 20.4808C325.498 16.4064 326.792 15.0778 327.619 13.1808C328.618 11.4467 329.528 9.32925 333.283 7.51939C336.586 5.6479 343.065 6.9318 345.35 10.6142C347.7 13.7157 349.212 17.3392 349.644 20.0356C349.757 20.6592 349.824 21.3071 349.828 21.9709C350.187 27.64 343.99 32.2363 338.979 32.8055C333.147 33.8313 325.732 33.8777 320.03 30.2401C317.642 28.7194 314.926 26.173 313.962 22.8809C312.953 19.5631 313.909 16.518 314.849 14.53C315.176 13.8284 315.619 13.3431 316.02 12.9694C319.255 10.5274 320.238 10.5501 323.573 9.0254C324.54 8.61198 325.702 8.1753 326.853 7.60631C327.424 7.31727 328 6.99775 328.458 6.55767C328.928 6.14868 329.159 5.4248 328.833 4.88834C328.528 4.35549 328.296 4.22327 328.359 4.26558C328.405 4.33169 328.739 4.55692 328.973 5.14144C329.296 6.08647 328.439 6.80118 327.918 7.20932C327.339 7.64541 326.805 7.94336 326.414 8.2086C324.831 9.25148 324.156 9.73766 322.007 10.6423C319.841 11.5219 319.168 12.5589 318.208 13.3117C317.657 13.8026 317.094 13.8462 316.51 15.1541C316.189 16.155 315.739 17.6252 316.139 19.7257C316.788 22.6302 318.703 24.0158 320.236 24.9213C321.817 25.8065 323.195 26.2145 324.315 26.4923C326.488 27.0903 331.505 28.3799 335.315 27.4847C336.95 27.1323 339.383 26.5133 341.13 25.3778C342.939 24.2262 343.463 22.9041 343.331 21.8413C343.302 21.5763 343.24 21.3126 343.153 21.0738C342.222 19.0321 342.969 18.6086 342.056 16.1645Z" fill="#EB292B"/>
<path d="M752.056 16.1645C751.787 15.5071 751.289 14.9851 750.677 14.5264C750.057 14.128 749.376 14.0663 748.828 14.0948C748.27 14.1297 747.908 14.213 747.303 14.0747C745.514 13.8786 744.14 13.0971 741.733 15.3766C739.274 17.6704 737.919 20.8839 738.856 21.5448C739.549 22.08 738.85 23.1541 741.018 23.7767C741.833 23.9591 742.564 24.0671 743.315 24.1741C744.231 24.3072 745.165 24.2712 746.31 23.8626C747.191 23.569 749.147 22.2942 749.62 20.2587C749.867 19.2627 749.37 18.2741 748.525 17.8687C747.687 17.4336 746.815 17.3767 746.195 17.3654C746.168 17.3653 746.141 17.3656 746.115 17.3663C745.013 17.3744 743.836 18.0542 743.26 19.0702C742.972 19.5698 742.841 20.1531 742.975 20.6536C743.103 21.1598 743.502 21.5054 743.877 21.6766C744.356 21.8959 744.776 21.9337 745.087 21.9545C745.221 21.9616 745.287 21.9609 745.287 21.9612C745.287 21.9612 745.287 21.9612 745.287 21.9612C745.287 21.9612 745.287 21.9612 745.287 21.9612C745.287 21.9612 745.287 21.9612 745.287 21.9612C745.287 21.9607 745.184 21.9625 745.015 21.9544C744.599 21.928 744.065 21.8729 743.537 21.5483C743.005 21.2418 742.636 20.509 742.745 19.7333C742.907 18.6288 743.446 18.0172 743.975 17.5619C744.527 17.1252 745.183 16.779 746.214 16.7668C746.82 16.7776 747.524 16.7862 748.443 17.0638C749.403 17.3411 750.314 18.0975 750.594 19.0919C750.887 20.0714 750.723 21.0303 750.41 21.8867C749.747 23.5629 748.491 25.1945 746.077 26.102C744.996 26.4758 744.022 26.6186 743.11 26.628C741.678 26.633 740.523 26.7485 738.883 26.276C737.439 25.9255 734.547 24.0491 734.83 20.4808C735.498 16.4064 736.792 15.0778 737.619 13.1808C738.618 11.4467 739.528 9.32925 743.283 7.51939C746.586 5.6479 753.065 6.9318 755.35 10.6142C757.7 13.7157 759.212 17.3392 759.644 20.0356C759.757 20.6592 759.824 21.3071 759.828 21.9709C760.187 27.64 753.99 32.2363 748.979 32.8055C743.147 33.8313 735.732 33.8777 730.03 30.2401C727.642 28.7194 724.926 26.173 723.962 22.8809C722.953 19.5631 723.909 16.518 724.849 14.53C725.176 13.8284 725.619 13.3431 726.02 12.9694C729.255 10.5274 730.238 10.5501 733.573 9.0254C734.54 8.61198 735.702 8.1753 736.853 7.60631C737.424 7.31727 738 6.99775 738.458 6.55767C738.928 6.14868 739.159 5.4248 738.833 4.88834C738.528 4.35549 738.296 4.22327 738.359 4.26558C738.405 4.33169 738.739 4.55692 738.973 5.14144C739.296 6.08647 738.439 6.80118 737.918 7.20932C737.339 7.64541 736.805 7.94336 736.414 8.2086C734.831 9.25148 734.156 9.73766 732.007 10.6423C729.841 11.5219 729.168 12.5589 728.208 13.3117C727.657 13.8026 727.094 13.8462 726.51 15.1541C726.189 16.155 725.739 17.6252 726.139 19.7257C726.788 22.6302 728.703 24.0158 730.236 24.9213C731.817 25.8065 733.195 26.2145 734.315 26.4923C736.488 27.0903 741.505 28.3799 745.315 27.4847C746.95 27.1323 749.383 26.5133 751.13 25.3778C752.939 24.2262 753.463 22.9041 753.331 21.8413C753.302 21.5763 753.24 21.3126 753.153 21.0738C752.222 19.0321 752.969 18.6086 752.056 16.1645Z" fill="#EB292B"/>
<path d="M856.035 16.1645C855.766 15.5071 855.268 14.9851 854.657 14.5264C854.037 14.128 853.355 14.0663 852.807 14.0948C852.249 14.1297 851.887 14.213 851.282 14.0747C849.493 13.8786 848.119 13.0971 845.712 15.3766C843.253 17.6704 841.899 20.8839 842.835 21.5448C843.529 22.08 842.829 23.1541 844.997 23.7767C845.812 23.9591 846.543 24.0671 847.294 24.1741C848.21 24.3072 849.145 24.2712 850.289 23.8626C851.17 23.569 853.126 22.2942 853.599 20.2587C853.846 19.2627 853.349 18.2741 852.504 17.8687C851.666 17.4336 850.795 17.3767 850.174 17.3654C850.147 17.3653 850.121 17.3656 850.095 17.3663C848.992 17.3744 847.816 18.0542 847.239 19.0702C846.951 19.5698 846.82 20.1531 846.955 20.6536C847.083 21.1598 847.482 21.5054 847.856 21.6766C848.335 21.8959 848.755 21.9337 849.066 21.9545C849.2 21.9616 849.267 21.9609 849.266 21.9612C849.266 21.9612 849.266 21.9612 849.266 21.9612C849.266 21.9612 849.266 21.9612 849.266 21.9612C849.266 21.9612 849.266 21.9612 849.266 21.9612C849.267 21.9607 849.164 21.9625 848.994 21.9544C848.578 21.928 848.044 21.8729 847.517 21.5483C846.984 21.2418 846.615 20.509 846.724 19.7333C846.887 18.6288 847.425 18.0172 847.954 17.5619C848.506 17.1252 849.163 16.779 850.194 16.7668C850.799 16.7776 851.504 16.7862 852.422 17.0638C853.382 17.3411 854.293 18.0975 854.573 19.0919C854.866 20.0714 854.702 21.0303 854.389 21.8867C853.726 23.5629 852.471 25.1945 850.056 26.102C848.975 26.4758 848.001 26.6186 847.089 26.628C845.657 26.633 844.502 26.7485 842.863 26.276C841.418 25.9255 838.527 24.0491 838.809 20.4808C839.477 16.4064 840.772 15.0778 841.598 13.1808C842.598 11.4467 843.507 9.32925 847.263 7.51939C850.566 5.6479 857.044 6.9318 859.33 10.6142C861.679 13.7157 863.192 17.3392 863.623 20.0356C863.736 20.6592 863.803 21.3071 863.807 21.9709C864.166 27.64 857.969 32.2363 852.958 32.8055C847.126 33.8313 839.712 33.8777 834.009 30.2401C831.621 28.7194 828.905 26.173 827.941 22.8809C826.932 19.5631 827.888 16.518 828.829 14.53C829.155 13.8284 829.598 13.3431 829.999 12.9694C833.234 10.5274 834.217 10.5501 837.552 9.0254C838.519 8.61198 839.681 8.1753 840.832 7.60631C841.403 7.31727 841.979 6.99775 842.437 6.55767C842.907 6.14868 843.138 5.4248 842.812 4.88834C842.507 4.35549 842.276 4.22327 842.339 4.26558C842.385 4.33169 842.718 4.55692 842.952 5.14144C843.275 6.08647 842.418 6.80118 841.897 7.20932C841.318 7.64541 840.784 7.94336 840.393 8.2086C838.81 9.25148 838.136 9.73766 835.986 10.6423C833.82 11.5219 833.147 12.5589 832.187 13.3117C831.637 13.8026 831.073 13.8462 830.49 15.1541C830.168 16.155 829.718 17.6252 830.118 19.7257C830.767 22.6302 832.682 24.0158 834.216 24.9213C835.796 25.8065 837.174 26.2145 838.294 26.4923C840.468 27.0903 845.484 28.3799 849.294 27.4847C850.929 27.1323 853.362 26.5133 855.109 25.3778C856.919 24.2262 857.442 22.9041 857.31 21.8413C857.282 21.5763 857.219 21.3126 857.133 21.0738C856.201 19.0321 856.948 18.6086 856.035 16.1645Z" fill="#EB292B"/>
<path d="M47.9652 16.1645C48.2336 15.5071 48.7316 14.9851 49.3434 14.5264C49.9634 14.128 50.645 14.0663 51.1926 14.0948C51.7512 14.1297 52.1127 14.213 52.7182 14.0747C54.5066 13.8786 55.8808 13.0971 58.2875 15.3766C60.7471 17.6704 62.1014 20.8839 61.1649 21.5448C60.4714 22.08 61.1709 23.1541 59.0027 23.7767C58.1881 23.9591 57.4572 24.0671 56.7059 24.1741C55.7897 24.3072 54.8553 24.2712 53.7108 23.8626C52.8299 23.569 50.874 22.2942 50.4008 20.2587C50.1539 19.2627 50.6507 18.2741 51.4962 17.8687C52.3338 17.4336 53.2054 17.3767 53.8256 17.3654C53.8529 17.3653 53.8795 17.3656 53.9054 17.3663C55.008 17.3744 56.1845 18.0542 56.7607 19.0702C57.0487 19.5698 57.1799 20.1531 57.0453 20.6536C56.9175 21.1598 56.5184 21.5054 56.1435 21.6766C55.6651 21.8959 55.2451 21.9337 54.9341 21.9545C54.8 21.9616 54.7334 21.9609 54.7337 21.9612C54.7337 21.9612 54.7337 21.9612 54.7337 21.9612C54.7337 21.9612 54.7337 21.9612 54.7337 21.9612C54.7337 21.9612 54.7337 21.9612 54.7337 21.9612C54.7333 21.9607 54.8363 21.9625 55.0059 21.9544C55.4216 21.928 55.9558 21.8729 56.4833 21.5483C57.0159 21.2418 57.3846 20.509 57.276 19.7333C57.1133 18.6288 56.5745 18.0172 56.0459 17.5619C55.4939 17.1252 54.8374 16.779 53.8063 16.7668C53.2006 16.7776 52.4965 16.7862 51.5776 17.0638C50.6181 17.3411 49.707 18.0975 49.4271 19.0919C49.1338 20.0714 49.2981 21.0303 49.6106 21.8867C50.2739 23.5629 51.5293 25.1945 53.9438 26.102C55.025 26.4758 55.9985 26.6186 56.9107 26.628C58.3431 26.633 59.498 26.7485 61.1375 26.276C62.5817 25.9255 65.4735 24.0491 65.1906 20.4808C64.5232 16.4064 63.2284 15.0778 62.4017 13.1808C61.4024 11.4467 60.4927 9.32925 56.7373 7.51939C53.4343 5.6479 46.9556 6.9318 44.6705 10.6142C42.3212 13.7157 40.8084 17.3392 40.3772 20.0356C40.2641 20.6592 40.1968 21.3071 40.193 21.9709C39.8339 27.64 46.0311 32.2363 51.0422 32.8055C56.8742 33.8313 64.2884 33.8777 69.991 30.2401C72.3785 28.7194 75.0947 26.173 76.0591 22.8809C77.0676 19.5631 76.1118 16.518 75.1713 14.53C74.8451 13.8284 74.4016 13.3431 74.0008 12.9694C70.7662 10.5274 69.7831 10.5501 66.4481 9.0254C65.4812 8.61198 64.3191 8.1753 63.1676 7.60631C62.5968 7.31727 62.0208 6.99775 61.5626 6.55767C61.0931 6.14868 60.8617 5.4248 61.1877 4.88834C61.4927 4.35549 61.7244 4.22327 61.6614 4.26558C61.6153 4.33169 61.2817 4.55692 61.0479 5.14144C60.7246 6.08647 61.5816 6.80118 62.1031 7.20932C62.6818 7.64541 63.2156 7.94336 63.6067 8.2086C65.19 9.25148 65.8643 9.73766 68.0142 10.6423C70.1795 11.5219 70.8527 12.5589 71.8128 13.3117C72.3635 13.8026 72.9265 13.8462 73.5103 15.1541C73.8322 16.155 74.2815 17.6252 73.882 19.7257C73.2326 22.6302 71.3179 24.0158 69.7843 24.9213C68.2042 25.8065 66.8262 26.2145 65.7062 26.4923C63.5323 27.0903 58.5157 28.3799 54.7062 27.4847C53.0705 27.1323 50.6382 26.5133 48.8909 25.3778C47.0813 24.2262 46.5581 22.9041 46.6902 21.8413C46.7184 21.5763 46.7811 21.3126 46.8673 21.0738C47.7991 19.0321 47.0521 18.6086 47.9652 16.1645Z" fill="#EB292B"/>
<path d="M457.965 16.1645C458.234 15.5071 458.732 14.9851 459.343 14.5264C459.963 14.128 460.645 14.0663 461.193 14.0948C461.751 14.1297 462.113 14.213 462.718 14.0747C464.507 13.8786 465.881 13.0971 468.288 15.3766C470.747 17.6704 472.101 20.8839 471.165 21.5448C470.471 22.08 471.171 23.1541 469.003 23.7767C468.188 23.9591 467.457 24.0671 466.706 24.1741C465.79 24.3072 464.855 24.2712 463.711 23.8626C462.83 23.569 460.874 22.2942 460.401 20.2587C460.154 19.2627 460.651 18.2741 461.496 17.8687C462.334 17.4336 463.205 17.3767 463.826 17.3654C463.853 17.3653 463.879 17.3656 463.905 17.3663C465.008 17.3744 466.184 18.0542 466.761 19.0702C467.049 19.5698 467.18 20.1531 467.045 20.6536C466.917 21.1598 466.518 21.5054 466.144 21.6766C465.665 21.8959 465.245 21.9337 464.934 21.9545C464.8 21.9616 464.733 21.9609 464.734 21.9612C464.734 21.9612 464.734 21.9612 464.734 21.9612C464.734 21.9612 464.734 21.9612 464.734 21.9612C464.734 21.9612 464.734 21.9612 464.734 21.9612C464.733 21.9607 464.836 21.9625 465.006 21.9544C465.422 21.928 465.956 21.8729 466.483 21.5483C467.016 21.2418 467.385 20.509 467.276 19.7333C467.113 18.6288 466.575 18.0172 466.046 17.5619C465.494 17.1252 464.837 16.779 463.806 16.7668C463.201 16.7776 462.496 16.7862 461.578 17.0638C460.618 17.3411 459.707 18.0975 459.427 19.0919C459.134 20.0714 459.298 21.0303 459.611 21.8867C460.274 23.5629 461.529 25.1945 463.944 26.102C465.025 26.4758 465.999 26.6186 466.911 26.628C468.343 26.633 469.498 26.7485 471.137 26.276C472.582 25.9255 475.473 24.0491 475.191 20.4808C474.523 16.4064 473.228 15.0778 472.402 13.1808C471.402 11.4467 470.493 9.32925 466.737 7.51939C463.434 5.6479 456.956 6.9318 454.67 10.6142C452.321 13.7157 450.808 17.3392 450.377 20.0356C450.264 20.6592 450.197 21.3071 450.193 21.9709C449.834 27.64 456.031 32.2363 461.042 32.8055C466.874 33.8313 474.288 33.8777 479.991 30.2401C482.379 28.7194 485.095 26.173 486.059 22.8809C487.068 19.5631 486.112 16.518 485.171 14.53C484.845 13.8284 484.402 13.3431 484.001 12.9694C480.766 10.5274 479.783 10.5501 476.448 9.0254C475.481 8.61198 474.319 8.1753 473.168 7.60631C472.597 7.31727 472.021 6.99775 471.563 6.55767C471.093 6.14868 470.862 5.4248 471.188 4.88834C471.493 4.35549 471.724 4.22327 471.661 4.26558C471.615 4.33169 471.282 4.55692 471.048 5.14144C470.725 6.08647 471.582 6.80118 472.103 7.20932C472.682 7.64541 473.216 7.94336 473.607 8.2086C475.19 9.25148 475.864 9.73766 478.014 10.6423C480.18 11.5219 480.853 12.5589 481.813 13.3117C482.363 13.8026 482.927 13.8462 483.51 15.1541C483.832 16.155 484.282 17.6252 483.882 19.7257C483.233 22.6302 481.318 24.0158 479.784 24.9213C478.204 25.8065 476.826 26.2145 475.706 26.4923C473.532 27.0903 468.516 28.3799 464.706 27.4847C463.071 27.1323 460.638 26.5133 458.891 25.3778C457.081 24.2262 456.558 22.9041 456.69 21.8413C456.718 21.5763 456.781 21.3126 456.867 21.0738C457.799 19.0321 457.052 18.6086 457.965 16.1645Z" fill="#EB292B"/>
<path d="M146.93 16.1645C147.199 15.5071 147.697 14.9851 148.308 14.5264C148.928 14.128 149.61 14.0663 150.158 14.0948C150.716 14.1297 151.078 14.213 151.683 14.0747C153.472 13.8786 154.846 13.0971 157.253 15.3766C159.712 17.6704 161.066 20.8839 160.13 21.5448C159.436 22.08 160.136 23.1541 157.968 23.7767C157.153 23.9591 156.422 24.0671 155.671 24.1741C154.755 24.3072 153.82 24.2712 152.676 23.8626C151.795 23.569 149.839 22.2942 149.366 20.2587C149.119 19.2627 149.616 18.2741 150.461 17.8687C151.299 17.4336 152.17 17.3767 152.791 17.3654C152.818 17.3653 152.845 17.3656 152.87 17.3663C153.973 17.3744 155.15 18.0542 155.726 19.0702C156.014 19.5698 156.145 20.1531 156.01 20.6536C155.883 21.1598 155.483 21.5054 155.109 21.6766C154.63 21.8959 154.21 21.9337 153.899 21.9545C153.765 21.9616 153.698 21.9609 153.699 21.9612C153.699 21.9612 153.699 21.9612 153.699 21.9612C153.699 21.9612 153.699 21.9612 153.699 21.9612C153.699 21.9612 153.699 21.9612 153.699 21.9612C153.698 21.9607 153.801 21.9625 153.971 21.9544C154.387 21.928 154.921 21.8729 155.448 21.5483C155.981 21.2418 156.35 20.509 156.241 19.7333C156.078 18.6288 155.54 18.0172 155.011 17.5619C154.459 17.1252 153.803 16.779 152.771 16.7668C152.166 16.7776 151.462 16.7862 150.543 17.0638C149.583 17.3411 148.672 18.0975 148.392 19.0919C148.099 20.0714 148.263 21.0303 148.576 21.8867C149.239 23.5629 150.494 25.1945 152.909 26.102C153.99 26.4758 154.964 26.6186 155.876 26.628C157.308 26.633 158.463 26.7485 160.103 26.276C161.547 25.9255 164.439 24.0491 164.156 20.4808C163.488 16.4064 162.193 15.0778 161.367 13.1808C160.367 11.4467 159.458 9.32925 155.702 7.51939C152.399 5.6479 145.921 6.9318 143.636 10.6142C141.286 13.7157 139.774 17.3392 139.342 20.0356C139.229 20.6592 139.162 21.3071 139.158 21.9709C138.799 27.64 144.996 32.2363 150.007 32.8055C155.839 33.8313 163.253 33.8777 168.956 30.2401C171.344 28.7194 174.06 26.173 175.024 22.8809C176.033 19.5631 175.077 16.518 174.136 14.53C173.81 13.8284 173.367 13.3431 172.966 12.9694C169.731 10.5274 168.748 10.5501 165.413 9.0254C164.446 8.61198 163.284 8.1753 162.133 7.60631C161.562 7.31727 160.986 6.99775 160.528 6.55767C160.058 6.14868 159.827 5.4248 160.153 4.88834C160.458 4.35549 160.69 4.22327 160.626 4.26558C160.58 4.33169 160.247 4.55692 160.013 5.14144C159.69 6.08647 160.547 6.80118 161.068 7.20932C161.647 7.64541 162.181 7.94336 162.572 8.2086C164.155 9.25148 164.829 9.73766 166.979 10.6423C169.145 11.5219 169.818 12.5589 170.778 13.3117C171.329 13.8026 171.892 13.8462 172.475 15.1541C172.797 16.155 173.247 17.6252 172.847 19.7257C172.198 22.6302 170.283 24.0158 168.749 24.9213C167.169 25.8065 165.791 26.2145 164.671 26.4923C162.497 27.0903 157.481 28.3799 153.671 27.4847C152.036 27.1323 149.603 26.5133 147.856 25.3778C146.046 24.2262 145.523 22.9041 145.655 21.8413C145.683 21.5763 145.746 21.3126 145.832 21.0738C146.764 19.0321 146.017 18.6086 146.93 16.1645Z" fill="#EB292B"/>
<path d="M556.93 16.1645C557.199 15.5071 557.697 14.9851 558.308 14.5264C558.928 14.128 559.61 14.0663 560.158 14.0948C560.716 14.1297 561.078 14.213 561.683 14.0747C563.472 13.8786 564.846 13.0971 567.253 15.3766C569.712 17.6704 571.066 20.8839 570.13 21.5448C569.436 22.08 570.136 23.1541 567.968 23.7767C567.153 23.9591 566.422 24.0671 565.671 24.1741C564.755 24.3072 563.82 24.2712 562.676 23.8626C561.795 23.569 559.839 22.2942 559.366 20.2587C559.119 19.2627 559.616 18.2741 560.461 17.8687C561.299 17.4336 562.17 17.3767 562.791 17.3654C562.818 17.3653 562.845 17.3656 562.87 17.3663C563.973 17.3744 565.15 18.0542 565.726 19.0702C566.014 19.5698 566.145 20.1531 566.01 20.6536C565.883 21.1598 565.483 21.5054 565.109 21.6766C564.63 21.8959 564.21 21.9337 563.899 21.9545C563.765 21.9616 563.698 21.9609 563.699 21.9612C563.699 21.9612 563.699 21.9612 563.699 21.9612C563.699 21.9612 563.699 21.9612 563.699 21.9612C563.699 21.9612 563.699 21.9612 563.699 21.9612C563.698 21.9607 563.801 21.9625 563.971 21.9544C564.387 21.928 564.921 21.8729 565.448 21.5483C565.981 21.2418 566.35 20.509 566.241 19.7333C566.078 18.6288 565.54 18.0172 565.011 17.5619C564.459 17.1252 563.803 16.779 562.771 16.7668C562.166 16.7776 561.462 16.7862 560.543 17.0638C559.583 17.3411 558.672 18.0975 558.392 19.0919C558.099 20.0714 558.263 21.0303 558.576 21.8867C559.239 23.5629 560.494 25.1945 562.909 26.102C563.99 26.4758 564.964 26.6186 565.876 26.628C567.308 26.633 568.463 26.7485 570.103 26.276C571.547 25.9255 574.439 24.0491 574.156 20.4808C573.488 16.4064 572.193 15.0778 571.367 13.1808C570.367 11.4467 569.458 9.32925 565.702 7.51939C562.399 5.6479 555.921 6.9318 553.636 10.6142C551.286 13.7157 549.774 17.3392 549.342 20.0356C549.229 20.6592 549.162 21.3071 549.158 21.9709C548.799 27.64 554.996 32.2363 560.007 32.8055C565.839 33.8313 573.253 33.8777 578.956 30.2401C581.344 28.7194 584.06 26.173 585.024 22.8809C586.033 19.5631 585.077 16.518 584.136 14.53C583.81 13.8284 583.367 13.3431 582.966 12.9694C579.731 10.5274 578.748 10.5501 575.413 9.0254C574.446 8.61198 573.284 8.1753 572.133 7.60631C571.562 7.31727 570.986 6.99775 570.528 6.55767C570.058 6.14868 569.827 5.4248 570.153 4.88834C570.458 4.35549 570.69 4.22327 570.626 4.26558C570.58 4.33169 570.247 4.55692 570.013 5.14144C569.69 6.08647 570.547 6.80118 571.068 7.20932C571.647 7.64541 572.181 7.94336 572.572 8.2086C574.155 9.25148 574.829 9.73766 576.979 10.6423C579.145 11.5219 579.818 12.5589 580.778 13.3117C581.329 13.8026 581.892 13.8462 582.475 15.1541C582.797 16.155 583.247 17.6252 582.847 19.7257C582.198 22.6302 580.283 24.0158 578.749 24.9213C577.169 25.8065 575.791 26.2145 574.671 26.4923C572.497 27.0903 567.481 28.3799 563.671 27.4847C562.036 27.1323 559.603 26.5133 557.856 25.3778C556.046 24.2262 555.523 22.9041 555.655 21.8413C555.683 21.5763 555.746 21.3126 555.832 21.0738C556.764 19.0321 556.017 18.6086 556.93 16.1645Z" fill="#EB292B"/>
<path d="M252.785 16.1645C253.054 15.5071 253.552 14.9851 254.163 14.5264C254.783 14.128 255.465 14.0663 256.013 14.0948C256.571 14.1297 256.933 14.213 257.538 14.0747C259.327 13.8786 260.701 13.0971 263.108 15.3766C265.567 17.6704 266.921 20.8839 265.985 21.5448C265.291 22.08 265.991 23.1541 263.823 23.7767C263.008 23.9591 262.277 24.0671 261.526 24.1741C260.61 24.3072 259.675 24.2712 258.531 23.8626C257.65 23.569 255.694 22.2942 255.221 20.2587C254.974 19.2627 255.471 18.2741 256.316 17.8687C257.154 17.4336 258.025 17.3767 258.646 17.3654C258.673 17.3653 258.7 17.3656 258.725 17.3663C259.828 17.3744 261.005 18.0542 261.581 19.0702C261.869 19.5698 262 20.1531 261.865 20.6536C261.738 21.1598 261.338 21.5054 260.964 21.6766C260.485 21.8959 260.065 21.9337 259.754 21.9545C259.62 21.9616 259.553 21.9609 259.554 21.9612C259.554 21.9612 259.554 21.9612 259.554 21.9612C259.554 21.9612 259.554 21.9612 259.554 21.9612C259.554 21.9612 259.554 21.9612 259.554 21.9612C259.553 21.9607 259.656 21.9625 259.826 21.9544C260.242 21.928 260.776 21.8729 261.303 21.5483C261.836 21.2418 262.205 20.509 262.096 19.7333C261.933 18.6288 261.395 18.0172 260.866 17.5619C260.314 17.1252 259.657 16.779 258.626 16.7668C258.021 16.7776 257.317 16.7862 256.398 17.0638C255.438 17.3411 254.527 18.0975 254.247 19.0919C253.954 20.0714 254.118 21.0303 254.431 21.8867C255.094 23.5629 256.349 25.1945 258.764 26.102C259.845 26.4758 260.819 26.6186 261.731 26.628C263.163 26.633 264.318 26.7485 265.958 26.276C267.402 25.9255 270.294 24.0491 270.011 20.4808C269.343 16.4064 268.048 15.0778 267.222 13.1808C266.222 11.4467 265.313 9.32925 261.557 7.51939C258.254 5.6479 251.776 6.9318 249.491 10.6142C247.141 13.7157 245.628 17.3392 245.197 20.0356C245.084 20.6592 245.017 21.3071 245.013 21.9709C244.654 27.64 250.851 32.2363 255.862 32.8055C261.694 33.8313 269.108 33.8777 274.811 30.2401C277.199 28.7194 279.915 26.173 280.879 22.8809C281.888 19.5631 280.932 16.518 279.991 14.53C279.665 13.8284 279.222 13.3431 278.821 12.9694C275.586 10.5274 274.603 10.5501 271.268 9.0254C270.301 8.61198 269.139 8.1753 267.988 7.60631C267.417 7.31727 266.841 6.99775 266.383 6.55767C265.913 6.14868 265.682 5.4248 266.008 4.88834C266.313 4.35549 266.544 4.22327 266.481 4.26558C266.435 4.33169 266.102 4.55692 265.868 5.14144C265.545 6.08647 266.402 6.80118 266.923 7.20932C267.502 7.64541 268.036 7.94336 268.427 8.2086C270.01 9.25148 270.684 9.73766 272.834 10.6423C275 11.5219 275.673 12.5589 276.633 13.3117C277.184 13.8026 277.747 13.8462 278.33 15.1541C278.652 16.155 279.102 17.6252 278.702 19.7257C278.053 22.6302 276.138 24.0158 274.604 24.9213C273.024 25.8065 271.646 26.2145 270.526 26.4923C268.352 27.0903 263.336 28.3799 259.526 27.4847C257.891 27.1323 255.458 26.5133 253.711 25.3778C251.901 24.2262 251.378 22.9041 251.51 21.8413C251.538 21.5763 251.601 21.3126 251.687 21.0738C252.619 19.0321 251.872 18.6086 252.785 16.1645Z" fill="#EB292B"/>
<path d="M662.785 16.1645C663.054 15.5071 663.552 14.9851 664.163 14.5264C664.783 14.128 665.465 14.0663 666.013 14.0948C666.571 14.1297 666.933 14.213 667.538 14.0747C669.327 13.8786 670.701 13.0971 673.108 15.3766C675.567 17.6704 676.921 20.8839 675.985 21.5448C675.291 22.08 675.991 23.1541 673.823 23.7767C673.008 23.9591 672.277 24.0671 671.526 24.1741C670.61 24.3072 669.675 24.2712 668.531 23.8626C667.65 23.569 665.694 22.2942 665.221 20.2587C664.974 19.2627 665.471 18.2741 666.316 17.8687C667.154 17.4336 668.025 17.3767 668.646 17.3654C668.673 17.3653 668.7 17.3656 668.725 17.3663C669.828 17.3744 671.005 18.0542 671.581 19.0702C671.869 19.5698 672 20.1531 671.865 20.6536C671.738 21.1598 671.338 21.5054 670.964 21.6766C670.485 21.8959 670.065 21.9337 669.754 21.9545C669.62 21.9616 669.553 21.9609 669.554 21.9612C669.554 21.9612 669.554 21.9612 669.554 21.9612C669.554 21.9612 669.554 21.9612 669.554 21.9612C669.554 21.9612 669.554 21.9612 669.554 21.9612C669.553 21.9607 669.656 21.9625 669.826 21.9544C670.242 21.928 670.776 21.8729 671.303 21.5483C671.836 21.2418 672.205 20.509 672.096 19.7333C671.933 18.6288 671.395 18.0172 670.866 17.5619C670.314 17.1252 669.657 16.779 668.626 16.7668C668.021 16.7776 667.317 16.7862 666.398 17.0638C665.438 17.3411 664.527 18.0975 664.247 19.0919C663.954 20.0714 664.118 21.0303 664.431 21.8867C665.094 23.5629 666.349 25.1945 668.764 26.102C669.845 26.4758 670.819 26.6186 671.731 26.628C673.163 26.633 674.318 26.7485 675.958 26.276C677.402 25.9255 680.294 24.0491 680.011 20.4808C679.343 16.4064 678.048 15.0778 677.222 13.1808C676.222 11.4467 675.313 9.32925 671.557 7.51939C668.254 5.6479 661.776 6.9318 659.491 10.6142C657.141 13.7157 655.628 17.3392 655.197 20.0356C655.084 20.6592 655.017 21.3071 655.013 21.9709C654.654 27.64 660.851 32.2363 665.862 32.8055C671.694 33.8313 679.108 33.8777 684.811 30.2401C687.199 28.7194 689.915 26.173 690.879 22.8809C691.888 19.5631 690.932 16.518 689.991 14.53C689.665 13.8284 689.222 13.3431 688.821 12.9694C685.586 10.5274 684.603 10.5501 681.268 9.0254C680.301 8.61198 679.139 8.1753 677.988 7.60631C677.417 7.31727 676.841 6.99775 676.383 6.55767C675.913 6.14868 675.682 5.4248 676.008 4.88834C676.313 4.35549 676.544 4.22327 676.481 4.26558C676.435 4.33169 676.102 4.55692 675.868 5.14144C675.545 6.08647 676.402 6.80118 676.923 7.20932C677.502 7.64541 678.036 7.94336 678.427 8.2086C680.01 9.25148 680.684 9.73766 682.834 10.6423C685 11.5219 685.673 12.5589 686.633 13.3117C687.184 13.8026 687.747 13.8462 688.33 15.1541C688.652 16.155 689.102 17.6252 688.702 19.7257C688.053 22.6302 686.138 24.0158 684.604 24.9213C683.024 25.8065 681.646 26.2145 680.526 26.4923C678.352 27.0903 673.336 28.3799 669.526 27.4847C667.891 27.1323 665.458 26.5133 663.711 25.3778C661.901 24.2262 661.378 22.9041 661.51 21.8413C661.538 21.5763 661.601 21.3126 661.687 21.0738C662.619 19.0321 661.872 18.6086 662.785 16.1645Z" fill="#EB292B"/>
<path d="M358.805 16.1645C359.073 15.5071 359.571 14.9851 360.183 14.5264C360.803 14.128 361.485 14.0663 362.032 14.0948C362.591 14.1297 362.953 14.213 363.558 14.0747C365.346 13.8786 366.721 13.0971 369.127 15.3766C371.587 17.6704 372.941 20.8839 372.005 21.5448C371.311 22.08 372.011 23.1541 369.843 23.7767C369.028 23.9591 368.297 24.0671 367.546 24.1741C366.629 24.3072 365.695 24.2712 364.551 23.8626C363.67 23.569 361.714 22.2942 361.241 20.2587C360.994 19.2627 361.491 18.2741 362.336 17.8687C363.174 17.4336 364.045 17.3767 364.665 17.3654C364.693 17.3653 364.719 17.3656 364.745 17.3663C365.848 17.3744 367.024 18.0542 367.601 19.0702C367.889 19.5698 368.02 20.1531 367.885 20.6536C367.757 21.1598 367.358 21.5054 366.983 21.6766C366.505 21.8959 366.085 21.9337 365.774 21.9545C365.64 21.9616 365.573 21.9609 365.574 21.9612C365.574 21.9612 365.574 21.9612 365.574 21.9612C365.574 21.9612 365.574 21.9612 365.574 21.9612C365.574 21.9612 365.574 21.9612 365.574 21.9612C365.573 21.9607 365.676 21.9625 365.846 21.9544C366.261 21.928 366.796 21.8729 367.323 21.5483C367.856 21.2418 368.224 20.509 368.116 19.7333C367.953 18.6288 367.414 18.0172 366.886 17.5619C366.334 17.1252 365.677 16.779 364.646 16.7668C364.04 16.7776 363.336 16.7862 362.417 17.0638C361.458 17.3411 360.547 18.0975 360.267 19.0919C359.974 20.0714 360.138 21.0303 360.45 21.8867C361.114 23.5629 362.369 25.1945 364.784 26.102C365.865 26.4758 366.838 26.6186 367.751 26.628C369.183 26.633 370.338 26.7485 371.977 26.276C373.422 25.9255 376.313 24.0491 376.03 20.4808C375.363 16.4064 374.068 15.0778 373.242 13.1808C372.242 11.4467 371.333 9.32925 367.577 7.51939C364.274 5.6479 357.795 6.9318 355.51 10.6142C353.161 13.7157 351.648 17.3392 351.217 20.0356C351.104 20.6592 351.037 21.3071 351.033 21.9709C350.674 27.64 356.871 32.2363 361.882 32.8055C367.714 33.8313 375.128 33.8777 380.831 30.2401C383.218 28.7194 385.935 26.173 386.899 22.8809C387.907 19.5631 386.952 16.518 386.011 14.53C385.685 13.8284 385.241 13.3431 384.841 12.9694C381.606 10.5274 380.623 10.5501 377.288 9.0254C376.321 8.61198 375.159 8.1753 374.007 7.60631C373.437 7.31727 372.861 6.99775 372.402 6.55767C371.933 6.14868 371.702 5.4248 372.028 4.88834C372.333 4.35549 372.564 4.22327 372.501 4.26558C372.455 4.33169 372.122 4.55692 371.888 5.14144C371.564 6.08647 372.421 6.80118 372.943 7.20932C373.522 7.64541 374.055 7.94336 374.447 8.2086C376.03 9.25148 376.704 9.73766 378.854 10.6423C381.019 11.5219 381.693 12.5589 382.653 13.3117C383.203 13.8026 383.766 13.8462 384.35 15.1541C384.672 16.155 385.121 17.6252 384.722 19.7257C384.072 22.6302 382.158 24.0158 380.624 24.9213C379.044 25.8065 377.666 26.2145 376.546 26.4923C374.372 27.0903 369.356 28.3799 365.546 27.4847C363.91 27.1323 361.478 26.5133 359.731 25.3778C357.921 24.2262 357.398 22.9041 357.53 21.8413C357.558 21.5763 357.621 21.3126 357.707 21.0738C358.639 19.0321 357.892 18.6086 358.805 16.1645Z" fill="#EB292B"/>
<path d="M768.805 16.1645C769.073 15.5071 769.571 14.9851 770.183 14.5264C770.803 14.128 771.485 14.0663 772.032 14.0948C772.591 14.1297 772.953 14.213 773.558 14.0747C775.346 13.8786 776.721 13.0971 779.127 15.3766C781.587 17.6704 782.941 20.8839 782.005 21.5448C781.311 22.08 782.011 23.1541 779.843 23.7767C779.028 23.9591 778.297 24.0671 777.546 24.1741C776.629 24.3072 775.695 24.2712 774.551 23.8626C773.67 23.569 771.714 22.2942 771.241 20.2587C770.994 19.2627 771.491 18.2741 772.336 17.8687C773.174 17.4336 774.045 17.3767 774.665 17.3654C774.693 17.3653 774.719 17.3656 774.745 17.3663C775.848 17.3744 777.024 18.0542 777.601 19.0702C777.889 19.5698 778.02 20.1531 777.885 20.6536C777.757 21.1598 777.358 21.5054 776.983 21.6766C776.505 21.8959 776.085 21.9337 775.774 21.9545C775.64 21.9616 775.573 21.9609 775.574 21.9612C775.574 21.9612 775.574 21.9612 775.574 21.9612C775.574 21.9612 775.574 21.9612 775.574 21.9612C775.574 21.9612 775.574 21.9612 775.574 21.9612C775.573 21.9607 775.676 21.9625 775.846 21.9544C776.261 21.928 776.796 21.8729 777.323 21.5483C777.856 21.2418 778.224 20.509 778.116 19.7333C777.953 18.6288 777.414 18.0172 776.886 17.5619C776.334 17.1252 775.677 16.779 774.646 16.7668C774.04 16.7776 773.336 16.7862 772.417 17.0638C771.458 17.3411 770.547 18.0975 770.267 19.0919C769.974 20.0714 770.138 21.0303 770.45 21.8867C771.114 23.5629 772.369 25.1945 774.784 26.102C775.865 26.4758 776.838 26.6186 777.751 26.628C779.183 26.633 780.338 26.7485 781.977 26.276C783.422 25.9255 786.313 24.0491 786.03 20.4808C785.363 16.4064 784.068 15.0778 783.242 13.1808C782.242 11.4467 781.333 9.32925 777.577 7.51939C774.274 5.6479 767.795 6.9318 765.51 10.6142C763.161 13.7157 761.648 17.3392 761.217 20.0356C761.104 20.6592 761.037 21.3071 761.033 21.9709C760.674 27.64 766.871 32.2363 771.882 32.8055C777.714 33.8313 785.128 33.8777 790.831 30.2401C793.218 28.7194 795.935 26.173 796.899 22.8809C797.907 19.5631 796.952 16.518 796.011 14.53C795.685 13.8284 795.241 13.3431 794.841 12.9694C791.606 10.5274 790.623 10.5501 787.288 9.0254C786.321 8.61198 785.159 8.1753 784.007 7.60631C783.437 7.31727 782.861 6.99775 782.402 6.55767C781.933 6.14868 781.702 5.4248 782.028 4.88834C782.333 4.35549 782.564 4.22327 782.501 4.26558C782.455 4.33169 782.122 4.55692 781.888 5.14144C781.564 6.08647 782.421 6.80118 782.943 7.20932C783.522 7.64541 784.055 7.94336 784.447 8.2086C786.03 9.25148 786.704 9.73766 788.854 10.6423C791.019 11.5219 791.693 12.5589 792.653 13.3117C793.203 13.8026 793.766 13.8462 794.35 15.1541C794.672 16.155 795.121 17.6252 794.722 19.7257C794.072 22.6302 792.158 24.0158 790.624 24.9213C789.044 25.8065 787.666 26.2145 786.546 26.4923C784.372 27.0903 779.356 28.3799 775.546 27.4847C773.91 27.1323 771.478 26.5133 769.731 25.3778C767.921 24.2262 767.398 22.9041 767.53 21.8413C767.558 21.5763 767.621 21.3126 767.707 21.0738C768.639 19.0321 767.892 18.6086 768.805 16.1645Z" fill="#EB292B"/>
<path d="M872.784 16.1645C873.053 15.5071 873.551 14.9851 874.162 14.5264C874.782 14.128 875.464 14.0663 876.012 14.0948C876.57 14.1297 876.932 14.213 877.537 14.0747C879.326 13.8786 880.7 13.0971 883.107 15.3766C885.566 17.6704 886.92 20.8839 885.984 21.5448C885.29 22.08 885.99 23.1541 883.822 23.7767C883.007 23.9591 882.276 24.0671 881.525 24.1741C880.609 24.3072 879.674 24.2712 878.53 23.8626C877.649 23.569 875.693 22.2942 875.22 20.2587C874.973 19.2627 875.47 18.2741 876.315 17.8687C877.153 17.4336 878.024 17.3767 878.645 17.3654C878.672 17.3653 878.699 17.3656 878.725 17.3663C879.827 17.3744 881.004 18.0542 881.58 19.0702C881.868 19.5698 881.999 20.1531 881.864 20.6536C881.737 21.1598 881.337 21.5054 880.963 21.6766C880.484 21.8959 880.064 21.9337 879.753 21.9545C879.619 21.9616 879.552 21.9609 879.553 21.9612C879.553 21.9612 879.553 21.9612 879.553 21.9612C879.553 21.9612 879.553 21.9612 879.553 21.9612C879.553 21.9612 879.553 21.9612 879.553 21.9612C879.552 21.9607 879.655 21.9625 879.825 21.9544C880.241 21.928 880.775 21.8729 881.302 21.5483C881.835 21.2418 882.204 20.509 882.095 19.7333C881.932 18.6288 881.394 18.0172 880.865 17.5619C880.313 17.1252 879.657 16.779 878.625 16.7668C878.02 16.7776 877.316 16.7862 876.397 17.0638C875.437 17.3411 874.526 18.0975 874.246 19.0919C873.953 20.0714 874.117 21.0303 874.43 21.8867C875.093 23.5629 876.348 25.1945 878.763 26.102C879.844 26.4758 880.818 26.6186 881.73 26.628C883.162 26.633 884.317 26.7485 885.957 26.276C887.401 25.9255 890.293 24.0491 890.01 20.4808C889.342 16.4064 888.047 15.0778 887.221 13.1808C886.221 11.4467 885.312 9.32925 881.556 7.51939C878.253 5.6479 871.775 6.9318 869.49 10.6142C867.14 13.7157 865.628 17.3392 865.196 20.0356C865.083 20.6592 865.016 21.3071 865.012 21.9709C864.653 27.64 870.85 32.2363 875.861 32.8055C881.693 33.8313 889.107 33.8777 894.81 30.2401C897.198 28.7194 899.914 26.173 900.878 22.8809C901.887 19.5631 900.931 16.518 899.99 14.53C899.664 13.8284 899.221 13.3431 898.82 12.9694C895.585 10.5274 894.602 10.5501 891.267 9.0254C890.3 8.61198 889.138 8.1753 887.987 7.60631C887.416 7.31727 886.84 6.99775 886.382 6.55767C885.912 6.14868 885.681 5.4248 886.007 4.88834C886.312 4.35549 886.544 4.22327 886.48 4.26558C886.434 4.33169 886.101 4.55692 885.867 5.14144C885.544 6.08647 886.401 6.80118 886.922 7.20932C887.501 7.64541 888.035 7.94336 888.426 8.2086C890.009 9.25148 890.683 9.73766 892.833 10.6423C894.999 11.5219 895.672 12.5589 896.632 13.3117C897.183 13.8026 897.746 13.8462 898.329 15.1541C898.651 16.155 899.101 17.6252 898.701 19.7257C898.052 22.6302 896.137 24.0158 894.603 24.9213C893.023 25.8065 891.645 26.2145 890.525 26.4923C888.351 27.0903 883.335 28.3799 879.525 27.4847C877.89 27.1323 875.457 26.5133 873.71 25.3778C871.9 24.2262 871.377 22.9041 871.509 21.8413C871.537 21.5763 871.6 21.3126 871.686 21.0738C872.618 19.0321 871.871 18.6086 872.784 16.1645Z" fill="#EB292B"/>
<path d="M88.5 24.499L94 18.999L88.5 13.499L83 18.999L88.5 24.499Z" fill="#EB292B"/>
<path d="M498.521 24.499L504.021 18.999L498.521 13.499L493.021 18.999L498.521 24.499Z" fill="#EB292B"/>
<path d="M399.5 24.499L405 18.999L399.5 13.499L394 18.999L399.5 24.499Z" fill="#EB292B"/>
<path d="M191.5 24.499L197 18.999L191.5 13.499L186 18.999L191.5 24.499Z" fill="#EB292B"/>
<path d="M601.521 24.499L607.021 18.999L601.521 13.499L596.021 18.999L601.521 24.499Z" fill="#EB292B"/>
<path d="M297.5 24.499L303 18.999L297.5 13.499L292 18.999L297.5 24.499Z" fill="#EB292B"/>
<path d="M707.521 24.499L713.021 18.999L707.521 13.499L702.021 18.999L707.521 24.499Z" fill="#EB292B"/>
<path d="M811.5 24.499L817 18.999L811.5 13.499L806 18.999L811.5 24.499Z" fill="#EB292B"/>
</svg>
